<svg width="77" height="16" viewBox="0 0 77 16" fill="none" xmlns="http://www.w3.org/2000/svg">
<path fill-rule="evenodd" clip-rule="evenodd" d="M18.6817 6.42241H2.73025C2.44333 6.42241 2.21074 6.655 2.21074 6.94192V13.4181C2.21074 13.705 2.44333 13.9376 2.73025 13.9376H18.6817C18.9686 13.9376 19.2012 13.705 19.2012 13.4181V6.94192C19.2012 6.655 18.9686 6.42241 18.6817 6.42241ZM2.73025 4.62183C1.4489 4.62183 0.410156 5.66057 0.410156 6.94192V13.4181C0.410156 14.6995 1.4489 15.7382 2.73025 15.7382H18.6817C19.963 15.7382 21.0017 14.6995 21.0017 13.4181V6.94192C21.0017 5.66057 19.963 4.62183 18.6817 4.62183H2.73025Z" fill="#0688FF"/>
<path fill-rule="evenodd" clip-rule="evenodd" d="M15.5061 2.10722H5.90695C5.62003 2.10722 5.38744 2.33982 5.38744 2.62674V4.63985H16.0256V2.62674C16.0256 2.33982 15.793 2.10722 15.5061 2.10722ZM5.90695 0.306641C4.6256 0.306641 3.58685 1.34538 3.58685 2.62674V6.44043H17.8262V2.62674C17.8262 1.34538 16.7875 0.306641 15.5061 0.306641H5.90695Z" fill="#0688FF"/>
<path d="M36.568 5.166H31.878V7.952C32.074 7.69067 32.3634 7.47133 32.746 7.294C33.138 7.11667 33.5534 7.028 33.992 7.028C34.776 7.028 35.4107 7.196 35.896 7.532C36.3907 7.868 36.7407 8.29267 36.946 8.806C37.1607 9.31933 37.268 9.86067 37.268 10.43C37.268 11.1207 37.1327 11.7367 36.862 12.278C36.6007 12.81 36.204 13.23 35.672 13.538C35.1494 13.846 34.5054 14 33.74 14C32.7227 14 31.906 13.748 31.29 13.244C30.674 12.74 30.3054 12.0727 30.184 11.242H31.738C31.8407 11.6807 32.0694 12.0307 32.424 12.292C32.7787 12.544 33.222 12.67 33.754 12.67C34.4167 12.67 34.9114 12.4693 35.238 12.068C35.574 11.6667 35.742 11.1347 35.742 10.472C35.742 9.8 35.574 9.28667 35.238 8.932C34.902 8.568 34.4074 8.386 33.754 8.386C33.2967 8.386 32.9094 8.50267 32.592 8.736C32.284 8.96 32.06 9.268 31.92 9.66H30.408V3.766H36.568V5.166ZM48.2642 9.002C48.7868 9.09533 49.2302 9.37067 49.5942 9.828C49.9582 10.2853 50.1402 10.8033 50.1402 11.382C50.1402 11.8767 50.0095 12.3247 49.7482 12.726C49.4962 13.118 49.1275 13.4307 48.6422 13.664C48.1568 13.888 47.5922 14 46.9482 14H43.0562V4.27H46.7662C47.4288 4.27 47.9982 4.382 48.4742 4.606C48.9502 4.83 49.3095 5.13333 49.5522 5.516C49.7948 5.88933 49.9162 6.30933 49.9162 6.776C49.9162 7.336 49.7668 7.80267 49.4682 8.176C49.1695 8.54933 48.7682 8.82467 48.2642 9.002ZM44.6522 8.358H46.6262C47.1488 8.358 47.5548 8.24133 47.8442 8.008C48.1428 7.76533 48.2922 7.42 48.2922 6.972C48.2922 6.53333 48.1428 6.19267 47.8442 5.95C47.5548 5.698 47.1488 5.572 46.6262 5.572H44.6522V8.358ZM46.8082 12.698C47.3495 12.698 47.7742 12.5673 48.0822 12.306C48.3902 12.0447 48.5442 11.6807 48.5442 11.214C48.5442 10.738 48.3808 10.36 48.0542 10.08C47.7275 9.8 47.2935 9.66 46.7522 9.66H44.6522V12.698H46.8082ZM59.0845 9.954C59.0845 10.2433 59.0659 10.5047 59.0285 10.738H53.1345C53.1812 11.354 53.4099 11.8487 53.8205 12.222C54.2312 12.5953 54.7352 12.782 55.3325 12.782C56.1912 12.782 56.7979 12.4227 57.1525 11.704H58.8745C58.6412 12.4133 58.2165 12.9967 57.6005 13.454C56.9939 13.902 56.2379 14.126 55.3325 14.126C54.5952 14.126 53.9325 13.9627 53.3445 13.636C52.7659 13.3 52.3085 12.8333 51.9725 12.236C51.6459 11.6293 51.4825 10.9293 51.4825 10.136C51.4825 9.34267 51.6412 8.64733 51.9585 8.05C52.2852 7.44333 52.7379 6.97667 53.3165 6.65C53.9045 6.32333 54.5765 6.16 55.3325 6.16C56.0605 6.16 56.7092 6.31867 57.2785 6.636C57.8479 6.95333 58.2912 7.40133 58.6085 7.98C58.9259 8.54933 59.0845 9.20733 59.0845 9.954ZM57.4185 9.45C57.4092 8.862 57.1992 8.39067 56.7885 8.036C56.3779 7.68133 55.8692 7.504 55.2625 7.504C54.7119 7.504 54.2405 7.68133 53.8485 8.036C53.4565 8.38133 53.2232 8.85267 53.1485 9.45H57.4185ZM60.2632 10.108C60.2632 9.33333 60.4218 8.64733 60.7392 8.05C61.0658 7.45267 61.5045 6.99067 62.0552 6.664C62.6152 6.328 63.2358 6.16 63.9172 6.16C64.4212 6.16 64.9158 6.272 65.4012 6.496C65.8958 6.71067 66.2878 7 66.5772 7.364V3.64H68.1872V14H66.5772V12.838C66.3158 13.2113 65.9518 13.5193 65.4852 13.762C65.0278 14.0047 64.5005 14.126 63.9032 14.126C63.2312 14.126 62.6152 13.958 62.0552 13.622C61.5045 13.2767 61.0658 12.8007 60.7392 12.194C60.4218 11.578 60.2632 10.8827 60.2632 10.108ZM66.5772 10.136C66.5772 9.604 66.4652 9.142 66.2412 8.75C66.0265 8.358 65.7418 8.05933 65.3872 7.854C65.0325 7.64867 64.6498 7.546 64.2392 7.546C63.8285 7.546 63.4458 7.64867 63.0912 7.854C62.7365 8.05 62.4472 8.344 62.2232 8.736C62.0085 9.11867 61.9012 9.576 61.9012 10.108C61.9012 10.64 62.0085 11.1067 62.2232 11.508C62.4472 11.9093 62.7365 12.2173 63.0912 12.432C63.4552 12.6373 63.8378 12.74 64.2392 12.74C64.6498 12.74 65.0325 12.6373 65.3872 12.432C65.7418 12.2267 66.0265 11.928 66.2412 11.536C66.4652 11.1347 66.5772 10.668 66.5772 10.136ZM73.2234 14.126C72.6168 14.126 72.0708 14.0187 71.5854 13.804C71.1094 13.58 70.7314 13.2813 70.4514 12.908C70.1714 12.5253 70.0221 12.1007 70.0034 11.634H71.6554C71.6834 11.9607 71.8374 12.236 72.1174 12.46C72.4068 12.6747 72.7661 12.782 73.1954 12.782C73.6434 12.782 73.9888 12.698 74.2314 12.53C74.4834 12.3527 74.6094 12.1287 74.6094 11.858C74.6094 11.5687 74.4694 11.354 74.1894 11.214C73.9188 11.074 73.4848 10.92 72.8874 10.752C72.3088 10.5933 71.8374 10.4393 71.4734 10.29C71.1094 10.1407 70.7921 9.912 70.5214 9.604C70.2601 9.296 70.1294 8.89 70.1294 8.386C70.1294 7.97533 70.2508 7.602 70.4934 7.266C70.7361 6.92067 71.0814 6.65 71.5294 6.454C71.9868 6.258 72.5094 6.16 73.0974 6.16C73.9748 6.16 74.6794 6.384 75.2114 6.832C75.7528 7.27067 76.0421 7.87267 76.0794 8.638H74.4834C74.4554 8.29267 74.3154 8.01733 74.0634 7.812C73.8114 7.60667 73.4708 7.504 73.0414 7.504C72.6214 7.504 72.2994 7.58333 72.0754 7.742C71.8514 7.90067 71.7394 8.11067 71.7394 8.372C71.7394 8.57733 71.8141 8.75 71.9634 8.89C72.1128 9.03 72.2948 9.142 72.5094 9.226C72.7241 9.30067 73.0414 9.39867 73.4614 9.52C74.0214 9.66933 74.4788 9.82333 74.8334 9.982C75.1974 10.1313 75.5101 10.3553 75.7714 10.654C76.0328 10.9527 76.1681 11.3493 76.1774 11.844C76.1774 12.2827 76.0561 12.6747 75.8134 13.02C75.5708 13.3653 75.2254 13.636 74.7774 13.832C74.3388 14.028 73.8208 14.126 73.2234 14.126Z" fill="#4D4D52"/>
</svg>
