<svg width="76" height="19" viewBox="0 0 76 19" fill="none" xmlns="http://www.w3.org/2000/svg">
<path fill-rule="evenodd" clip-rule="evenodd" d="M2.57898 9.17481L3.38907 15.6909C3.42489 15.979 3.66972 16.1953 3.96003 16.1953H18.6509C18.9384 16.1953 19.1817 15.9831 19.2209 15.6983L20.1187 9.17481H2.57898ZM2.27635 7.33252C1.32944 7.33252 0.596612 8.1621 0.713433 9.10178L1.56086 15.9182C1.71136 17.1287 2.74014 18.0375 3.96003 18.0375H18.6509C19.8588 18.0375 20.8813 17.1461 21.046 15.9495L21.9856 9.1222C22.1158 8.17593 21.3805 7.33252 20.4253 7.33252H2.27635Z" fill="#0C8BFF"/>
<path fill-rule="evenodd" clip-rule="evenodd" d="M10.4636 3.31054C9.77802 3.69376 9.4873 4.16099 9.44971 4.50633L9.32711 5.63269L8.24949 5.28277C7.29285 4.97214 6.67799 4.98954 6.291 5.1059C5.92507 5.21593 5.66406 5.44364 5.46061 5.78457C5.00759 6.54374 4.92786 7.70943 4.92786 8.65496L3.08557 8.65496C3.08557 7.73785 3.13515 6.08636 3.87859 4.84052C4.27338 4.17894 4.8774 3.60719 5.76051 3.34164C6.39802 3.14995 7.12093 3.13595 7.93059 3.29633C8.28448 2.6228 8.88858 2.08037 9.56472 1.70242C10.5737 1.13842 11.8758 0.853722 13.2351 0.994694C16.0318 1.28476 18.9285 3.34299 20.257 8.10523L18.4825 8.60027C17.3207 4.43585 14.9622 3.02599 13.045 2.82715C12.0473 2.72367 11.1277 2.93932 10.4636 3.31054Z" fill="#0C8BFF"/>
<path d="M33.0052 12.83C33.9012 12.0553 34.6059 11.4207 35.1192 10.926C35.6419 10.422 36.0759 9.89933 36.4212 9.358C36.7665 8.81667 36.9392 8.27533 36.9392 7.734C36.9392 7.174 36.8039 6.73533 36.5332 6.418C36.2719 6.10067 35.8565 5.942 35.2872 5.942C34.7365 5.942 34.3072 6.11933 33.9992 6.474C33.7005 6.81933 33.5419 7.286 33.5232 7.874H31.9832C32.0112 6.81 32.3285 5.998 32.9352 5.438C33.5512 4.86867 34.3305 4.584 35.2732 4.584C36.2905 4.584 37.0839 4.864 37.6532 5.424C38.2319 5.984 38.5212 6.73067 38.5212 7.664C38.5212 8.336 38.3485 8.98467 38.0032 9.61C37.6672 10.226 37.2612 10.7813 36.7852 11.276C36.3185 11.7613 35.7212 12.326 34.9932 12.97L34.3632 13.53H38.8012V14.86H31.9972V13.698L33.0052 12.83ZM45.646 8.434C45.9167 8.06067 46.2853 7.75733 46.752 7.524C47.228 7.28133 47.7553 7.16 48.334 7.16C49.0153 7.16 49.6313 7.32333 50.182 7.65C50.7327 7.97667 51.1667 8.44333 51.484 9.05C51.8013 9.64733 51.96 10.3333 51.96 11.108C51.96 11.8827 51.8013 12.578 51.484 13.194C51.1667 13.8007 50.728 14.2767 50.168 14.622C49.6173 14.958 49.006 15.126 48.334 15.126C47.7367 15.126 47.2047 15.0093 46.738 14.776C46.2807 14.5427 45.9167 14.244 45.646 13.88V15H44.05V4.64H45.646V8.434ZM50.336 11.108C50.336 10.576 50.224 10.1187 50 9.736C49.7853 9.344 49.496 9.05 49.132 8.854C48.7773 8.64867 48.3947 8.546 47.984 8.546C47.5827 8.546 47.2 8.64867 46.836 8.854C46.4813 9.05933 46.192 9.358 45.968 9.75C45.7533 10.142 45.646 10.604 45.646 11.136C45.646 11.668 45.7533 12.1347 45.968 12.536C46.192 12.928 46.4813 13.2267 46.836 13.432C47.2 13.6373 47.5827 13.74 47.984 13.74C48.3947 13.74 48.7773 13.6373 49.132 13.432C49.496 13.2173 49.7853 12.9093 50 12.508C50.224 12.1067 50.336 11.64 50.336 11.108ZM56.8843 15.126C56.1563 15.126 55.4983 14.9627 54.9103 14.636C54.3223 14.3 53.8603 13.8333 53.5243 13.236C53.1883 12.6293 53.0203 11.9293 53.0203 11.136C53.0203 10.352 53.1929 9.65667 53.5383 9.05C53.8836 8.44333 54.3549 7.97667 54.9523 7.65C55.5496 7.32333 56.2169 7.16 56.9543 7.16C57.6916 7.16 58.3589 7.32333 58.9563 7.65C59.5536 7.97667 60.0249 8.44333 60.3703 9.05C60.7156 9.65667 60.8883 10.352 60.8883 11.136C60.8883 11.92 60.7109 12.6153 60.3563 13.222C60.0016 13.8287 59.5163 14.3 58.9003 14.636C58.2936 14.9627 57.6216 15.126 56.8843 15.126ZM56.8843 13.74C57.2949 13.74 57.6776 13.642 58.0323 13.446C58.3963 13.25 58.6903 12.956 58.9143 12.564C59.1383 12.172 59.2503 11.696 59.2503 11.136C59.2503 10.576 59.1429 10.1047 58.9283 9.722C58.7136 9.33 58.4289 9.036 58.0743 8.84C57.7196 8.644 57.3369 8.546 56.9263 8.546C56.5156 8.546 56.1329 8.644 55.7783 8.84C55.4329 9.036 55.1576 9.33 54.9523 9.722C54.7469 10.1047 54.6443 10.576 54.6443 11.136C54.6443 11.9667 54.8543 12.6107 55.2743 13.068C55.7036 13.516 56.2403 13.74 56.8843 13.74ZM64.328 8.588V12.858C64.328 13.1473 64.3933 13.3573 64.524 13.488C64.664 13.6093 64.8973 13.67 65.224 13.67H66.204V15H64.944C64.2253 15 63.6747 14.832 63.292 14.496C62.9093 14.16 62.718 13.614 62.718 12.858V8.588H61.808V7.286H62.718V5.368H64.328V7.286H66.204V8.588H64.328ZM71.665 7.16C72.253 7.16 72.7757 7.286 73.233 7.538C73.6997 7.79 74.0637 8.16333 74.325 8.658C74.5957 9.15267 74.731 9.75 74.731 10.45V15H73.149V10.688C73.149 9.99733 72.9763 9.47 72.631 9.106C72.2857 8.73267 71.8143 8.546 71.217 8.546C70.6197 8.546 70.1437 8.73267 69.789 9.106C69.4437 9.47 69.271 9.99733 69.271 10.688V15H67.675V4.64H69.271V8.182C69.5417 7.85533 69.8823 7.60333 70.293 7.426C70.713 7.24867 71.1703 7.16 71.665 7.16Z" fill="#444444"/>
</svg>
